<svg xmlns="http://www.w3.org/2000/svg" fill="currentColor" stroke="transparent" class="icon" style="width:105px;height:40px;flex-grow:0" viewBox="0 0 105 40">
  <path d="M15.45 22.97c-.27-.2-.64-.13-.86.13a4.88 4.88 0 0 1-1.43 1.15 5.2 5.2 0 0 1-2.5.6 5.36 5.36 0 0 1-2.3-.5 5.84 5.84 0 0 1-1.88-1.4 7.08 7.08 0 0 1-1.25-2.11 7.18 7.18 0 0 1-.45-2.11.6.6 0 0 0-.6-.58H.58a.56.56 0 0 0-.57.58c.06 1.44.34 2.76.82 3.96a9.72 9.72 0 0 0 2.34 3.46c1 .97 2.19 1.7 3.57 2.19 1.38.52 2.86.76 4.5.76 1.43 0 2.84-.3 4.19-.89a8.1 8.1 0 0 0 3-2.29.55.55 0 0 0-.1-.79l-2.88-2.16Zm1.28-14.2a8.91 8.91 0 0 0-1.77-.93 10.06 10.06 0 0 0-2.24-.58.56.56 0 0 0-.6.4l-.94 3.02c-.12.37.15.74.53.79a4.42 4.42 0 0 1 2.66 1.25c.22.21.57.25.82.05l2.65-2.17a.55.55 0 0 0 .07-.8 8.57 8.57 0 0 0-1.18-1.03ZM5.52 12.81a2.94 2.94 0 0 0 2.94-2.94 2.94 2.94 0 0 0-2.94-2.95 2.94 2.94 0 0 0-2.94 2.95 2.94 2.94 0 0 0 2.94 2.94ZM23.74 29a.76.76 0 0 1-.56-.22.76.76 0 0 1-.22-.56V7.66c0-.23.08-.42.22-.56a.76.76 0 0 1 .56-.22h3.37c.2 0 .38.07.53.22a.76.76 0 0 1 .21.56v7a6.22 6.22 0 0 1 2.06-1.58c.81-.4 1.79-.6 2.93-.6 1.22 0 2.3.29 3.24.85a5.6 5.6 0 0 1 2.24 2.4c.54 1.04.81 2.3.81 3.8v8.7a.76.76 0 0 1-.22.55.76.76 0 0 1-.56.22h-3.4a.72.72 0 0 1-.52-.22.76.76 0 0 1-.22-.56v-8.5a3.7 3.7 0 0 0-.81-2.56 2.88 2.88 0 0 0-2.3-.93c-.98 0-1.77.3-2.37.93-.59.6-.88 1.46-.88 2.56v8.5a.76.76 0 0 1-.21.56.72.72 0 0 1-.53.22h-3.37Zm19.56 0a.72.72 0 0 1-.53-.22.76.76 0 0 1-.22-.56V13.58c0-.23.07-.42.22-.56a.72.72 0 0 1 .53-.22h3.11a.76.76 0 0 1 .56.22.76.76 0 0 1 .22.56v14.64a.76.76 0 0 1-.22.56.76.76 0 0 1-.56.22H43.3Zm-.1-18.7a.72.72 0 0 1-.53-.21.76.76 0 0 1-.22-.56v-2.5c0-.22.08-.4.22-.55a.68.68 0 0 1 .53-.25h3.27c.23 0 .42.08.56.25.17.14.25.33.25.56v2.49a.71.71 0 0 1-.25.56.76.76 0 0 1-.56.22H43.2Zm9.16 24.62a.76.76 0 0 1-.57-.22.76.76 0 0 1-.21-.56V13.58a.76.76 0 0 1 .21-.56.76.76 0 0 1 .56-.22h2.96a.76.76 0 0 1 .57.22.76.76 0 0 1 .21.56v1.18a5.68 5.68 0 0 1 1.94-1.62 6.05 6.05 0 0 1 2.96-.65 6.7 6.7 0 0 1 2.8.53 6.08 6.08 0 0 1 3.3 3.73c.31.9.49 1.9.53 3.03a21.35 21.35 0 0 1 0 2.27 9.4 9.4 0 0 1-.5 2.93c-.29.9-.71 1.66-1.27 2.3a5.71 5.71 0 0 1-2.06 1.5c-.8.35-1.72.53-2.8.53a6.42 6.42 0 0 1-2.78-.56 5.45 5.45 0 0 1-1.9-1.59v6.98a.76.76 0 0 1-.22.56.72.72 0 0 1-.53.22h-3.2Zm7.22-9.35c.8 0 1.42-.16 1.87-.5.46-.35.78-.8.97-1.37.2-.56.33-1.17.37-1.83a15 15 0 0 0 0-1.94 6.42 6.42 0 0 0-.37-1.83 2.64 2.64 0 0 0-.97-1.34 3 3 0 0 0-1.87-.53c-.76 0-1.39.17-1.87.53-.47.35-.82.8-1.02 1.34a5.93 5.93 0 0 0-.38 1.74 22.48 22.48 0 0 0 0 2.34c.02.58.15 1.13.38 1.65.25.5.6.91 1.06 1.24.47.34 1.09.5 1.83.5Zm11.84 9.35a.76.76 0 0 1-.56-.22.76.76 0 0 1-.22-.56V13.58c0-.23.08-.42.22-.56a.76.76 0 0 1 .56-.22h2.96c.23 0 .42.07.56.22a.76.76 0 0 1 .22.56v1.18a5.68 5.68 0 0 1 1.93-1.62 6.05 6.05 0 0 1 2.96-.65c1.08 0 2.02.17 2.8.53.82.33 1.5.82 2.03 1.46.56.62.99 1.38 1.28 2.27.31.9.49 1.9.53 3.03a21.35 21.35 0 0 1 0 2.27 9.4 9.4 0 0 1-.5 2.93c-.29.9-.72 1.66-1.28 2.3a5.71 5.71 0 0 1-2.05 1.5c-.8.35-1.73.53-2.8.53a6.41 6.41 0 0 1-2.78-.56 5.45 5.45 0 0 1-1.9-1.59v6.98a.76.76 0 0 1-.22.56.72.72 0 0 1-.53.22h-3.2Zm7.23-9.35c.8 0 1.41-.16 1.87-.5.46-.35.78-.8.97-1.37.2-.56.33-1.17.37-1.83a15 15 0 0 0 0-1.94 6.42 6.42 0 0 0-.37-1.83 2.65 2.65 0 0 0-.97-1.34 3 3 0 0 0-1.87-.53c-.77 0-1.39.17-1.87.53-.48.35-.82.8-1.03 1.34a5.93 5.93 0 0 0-.37 1.74 22.48 22.48 0 0 0 0 2.34 4.46 4.46 0 0 0 .37 1.65c.25.5.6.91 1.06 1.24.48.34 1.1.5 1.84.5ZM90.46 29a.72.72 0 0 1-.53-.22.76.76 0 0 1-.22-.56V13.58c0-.21.08-.39.22-.53a.68.68 0 0 1 .53-.25h3.05c.21 0 .39.08.53.25.17.14.25.32.25.53v1.24a5.34 5.34 0 0 1 1.9-1.5 6.26 6.26 0 0 1 2.65-.52h1.34c.2 0 .39.07.53.22a.76.76 0 0 1 .22.56v2.68a.76.76 0 0 1-.22.56.72.72 0 0 1-.53.22h-2.74a2.9 2.9 0 0 0-2.15.78c-.52.5-.78 1.21-.78 2.15v8.25a.76.76 0 0 1-.22.56.76.76 0 0 1-.56.22h-3.27Z"/>
</svg>