<svg xmlns="http://www.w3.org/2000/svg" viewBox="0 0 24 24">
  <path d="M18 8.5a2.5 2.5 0 0 1-5 0 2.5 2.5 0 0 1 5 0Zm0 6.87a11.06 11.06 0 0 1-1.17 4.57A7.63 7.63 0 0 1 10 24H9v-5.5A3.52 3.52 0 0 0 5.5 15H0v-1a7.63 7.63 0 0 1 4.07-6.83A11.06 11.06 0 0 1 8.63 6a15.49 15.49 0 0 1 12.34-6A3 3 0 0 1 24 3a15.5 15.5 0 0 1-6 12.37ZM2.07 13h2.27a34.36 34.36 0 0 1 2.6-4.76 9 9 0 0 0-1.99.72A5.52 5.52 0 0 0 2.08 13Zm13.68 4.04A34.36 34.36 0 0 1 11 19.66v2.27a5.52 5.52 0 0 0 4.04-2.88 9 9 0 0 0 .72-2ZM22 2.98A1 1 0 0 0 21 2c-5.16.15-8.65 2.12-12.02 6.82a29.92 29.92 0 0 0-2.47 4.27 5.5 5.5 0 0 1 4.4 4.4 29.92 29.92 0 0 0 4.27-2.47c4.7-3.37 6.67-6.86 6.82-12.05ZM6.12 17.87a3.02 3.02 0 0 1 0 4.25c-.9.9-3.62 1.47-4.75 1.67l-1.4.24.24-1.4c.2-1.13.76-3.84 1.67-4.75a3.07 3.07 0 0 1 4.24 0ZM5 20a1 1 0 0 0-.3-.7 1 1 0 0 0-1.4 0 7.32 7.32 0 0 0-.8 2.2 7.34 7.34 0 0 0 2.2-.8A1 1 0 0 0 5 20Z"/>
</svg>